<?xml version="1.0" encoding="UTF-8" standalone="no"?>
<!-- Created with Inkscape (http://www.inkscape.org/) -->

<svg
   version="1.1"
   id="svg1"
   width="3698.573"
   height="2704.3149"
   viewBox="0 0 3698.573 2704.3149"
   sodipodi:docname="Weiße Schrift-Schwarzer Hintergrund.svg"
   inkscape:version="1.3 (0e150ed6c4, 2023-07-21)"
   xmlns:inkscape="http://www.inkscape.org/namespaces/inkscape"
   xmlns:sodipodi="http://sodipodi.sourceforge.net/DTD/sodipodi-0.dtd"
   xmlns="http://www.w3.org/2000/svg"
   xmlns:svg="http://www.w3.org/2000/svg">
  <defs
     id="defs1" />
  <sodipodi:namedview
     id="namedview1"
     pagecolor="#000000"
     bordercolor="#000000"
     borderopacity="0.25"
     inkscape:showpageshadow="2"
     inkscape:pageopacity="0.0"
     inkscape:pagecheckerboard="0"
     inkscape:deskcolor="#d1d1d1"
     inkscape:zoom="0.15179921"
     inkscape:cx="1851.1295"
     inkscape:cy="1353.762"
     inkscape:window-width="1920"
     inkscape:window-height="1009"
     inkscape:window-x="1912"
     inkscape:window-y="-8"
     inkscape:window-maximized="1"
     inkscape:current-layer="g1" />
  <g
     inkscape:groupmode="layer"
     inkscape:label="Image"
     id="g1"
     transform="translate(-1457.43,-995.68502)">
    <path
       style="opacity:1;fill:#ffd700;fill-opacity:1"
       d="m 3384.8115,3445.9657 c 65.268,-5.1475 121.0084,-20.7019 176.6048,-49.2817 43.8999,-22.5672 77.781,-47.7505 114.1075,-84.8146 35.7579,-36.484 56.9491,-65.8403 78.2445,-108.3927 28.6353,-57.2192 43.7149,-122.2073 46.8079,-201.7267 l 0.6905,-17.75 -154.8834,9e-4 -154.8833,8e-4 -2.3525,13.2492 c -4.453,25.0793 -11.713,46.8366 -24.2462,72.6628 -9.7113,20.0114 -14.6603,27.6054 -23.5621,36.1549 -22.6232,21.7281 -54.8918,31.9314 -100.9846,31.9314 -47.1535,0 -84.3085,-13.3444 -111.3724,-40 -19.3296,-19.038 -31.2446,-42.659 -37.2363,-73.8199 L 3189.5,3012.5 v -341 c 0,-361.8222 -0.2113,-344.9677 4.6325,-369.5 11.6779,-59.1441 48.0093,-99.183 102.3981,-112.8476 14.3718,-3.6108 23.5337,-4.575 43.4694,-4.575 30.7297,0 50.5167,4.1935 73,15.4711 35.6997,17.9071 58.5643,47.8004 69.9487,91.4515 4.6247,17.7325 8.0415,45.0099 8.0479,64.25 V 2366 h 155.1327 155.1327 l -0.6825,-19.75 c -1.9994,-57.8645 -8.1869,-101.438 -21.1232,-148.7537 C 3757.9049,2118.6571 3716.833,2046.52 3665.3168,1997.02 3598.2693,1932.5966 3506.1825,1890.203 3408,1878.5603 c -23.1514,-2.7453 -40.0397,-3.6171 -69.8425,-3.6053 -113.2149,0.045 -201.9755,26.3402 -279.3755,82.7645 -53.6505,39.111 -95.5647,87.5064 -125.3915,144.7805 -33.4008,64.1371 -48.7302,138.0952 -53.3724,257.5 -1.3239,34.0543 -1.3239,567.9457 0,602 4.508,115.954 19.1479,189.4296 50.0358,251.1228 40.6987,81.2883 106.2254,146.5147 188.5765,187.7123 56.1393,28.0847 119.9867,43.1083 197.8696,46.5597 12.4814,0.5531 54.2605,-0.3209 68.3115,-1.4291 z"
       id="path7" />
    <path
       id="path5"
       style="opacity:1;fill:#ffffff;fill-opacity:1"
       d="m 2200.5,3446.9648 c 31.2037,-1.5718 57.5833,-4.8932 84,-10.5762 72.2459,-15.542 138.8984,-48.5394 195.449,-96.7599 14.066,-11.9941 40.8114,-39.1617 53.7797,-54.6287 54.3466,-64.8183 86.5175,-142.6697 96.6969,-234 1.9819,-17.7824 3.5744,-42.8352 3.5744,-56.2329 V 2984 h -154.8575 -154.8576 l -0.6391,6.1147 c -3.2268,30.8725 -23.9563,84.9205 -41.2479,107.5457 -19.4018,25.3862 -52.4874,38.5797 -100.442,40.0531 -52.8633,1.6242 -90.6484,-11.1461 -120.0831,-40.5849 -18.7798,-18.7823 -28.9431,-37.8757 -35.2211,-66.1684 -4.3691,-19.6895 -4.6447,-28.2107 -4.6483,-143.7102 L 2022,2778 h 306.0301 306.0301 l -0.3455,-233.75 c -0.3609,-244.0596 -0.2431,-237.3405 -4.7733,-272.25 -11.9539,-92.1158 -45.5574,-173.7561 -98.9909,-240.5 -13.1642,-16.4434 -20.4954,-24.411 -34.8854,-37.9134 -51.1026,-47.9506 -120.2467,-85.2496 -191.8012,-103.4649 -42.4125,-10.7968 -80.1083,-15.1742 -130.6374,-15.1701 -67.3754,0.01 -119.4285,7.9551 -173.3316,26.4716 -89.9641,30.904 -171.2392,97.0744 -220.5687,179.5768 -44.0039,73.5956 -61.8863,153.7945 -65.7302,294.7872 -1.2181,44.6824 -1.2326,524.8039 -0.017,570.2128 2.3879,89.2096 11.2101,157.3548 26.9928,208.5 23.6223,76.5498 70.811,145.4041 134.9157,196.8587 41.3915,33.2236 90.6607,59.5774 138.6127,74.1431 56.3506,17.1168 122.5182,24.7113 187,21.463 z M 2022.2714,2432.75 c 0.3366,-89.857 0.5897,-103.6438 2.0877,-113.75 2.1456,-14.474 6.034,-31.0084 9.8773,-42 21.5635,-61.6704 75.7214,-95.8648 146.7636,-92.6641 43.041,1.9392 74.5603,15.0335 100.4772,41.7421 22.9889,23.6912 35.4927,53.1317 41.1643,96.922 1.3668,10.5532 1.6895,28.0357 2.0716,112.25 l 0.4527,99.75 H 2173.527 2021.8883 Z" />
    <path
       style="opacity:1;fill:#ffffff;fill-opacity:1"
       d="m 5152.9247,3697.4099 3.0782,-2.5901 -0.2515,-1028.8872 -0.2514,-1028.8871 -2.7711,-2.7728 -2.771,-2.7727 -46.729,-0.6257 c -25.7009,-0.3442 -176.6268,-0.6817 -335.3909,-0.75 -317.895,-0.1369 -297.6459,-0.5288 -310.5812,6.0114 -11.5445,5.837 -19.9158,17.243 -22.3603,30.4662 -3.4189,18.4944 7.9626,38.4834 25.9297,45.5397 l 5.6738,2.2284 303.2641,-0.3033 303.264,-0.3033 -0.045,950.1171 c -0.025,522.5644 -0.3042,950.7927 -0.621,951.6183 -0.512,1.3341 -197.0367,1.5012 -1765.9691,1.5012 H 1541 v -951.5314 -951.5314 l 1131.9028,0.096 c 859.1934,0.073 1132.9461,-0.1848 1136.2332,-1.0699 16.1977,-4.3616 28.4587,-17.9751 30.7458,-34.1373 3.067,-21.6736 -10.3194,-40.8717 -32.4584,-46.5503 -6.6127,-1.6961 -59.347,-1.7758 -1175.1542,-1.7758 H 1464.0384 l -3.2692,3.2692 -3.2692,3.2692 -0.066,989.7308 c -0.037,544.3519 0.1884,1007.6585 0.5,1029.5702 l 0.5665,39.8394 2.3608,1.9106 c 2.322,1.8793 32.5964,1.9106 1845.6733,1.9106 h 1843.3119 z"
       id="path4" />
    <path
       id="path8"
       style="display:inline;opacity:1;fill:#ffffff;fill-opacity:1"
       d="m 4610,3446.9715 c 64.2003,-3.6664 114.6448,-18.9524 158.2733,-47.9608 50.4785,-33.563 86.968,-83.2031 108.0648,-147.0107 17.9841,-54.3931 26.5613,-117.2788 29.6657,-217.5 1.2769,-41.2259 1.2704,-680.4148 -0.01,-739.5 -3.1243,-144.442 -10.5274,-200.6404 -33.3917,-253.4821 -26.1226,-60.3723 -93.8008,-124.1524 -156.0115,-147.0256 -39.6354,-14.573 -94.1147,-21.5178 -151.593,-19.3245 -69.133,2.638 -129.9923,24.6953 -183.8828,66.6448 -28.4642,22.1572 -55.9436,51.0709 -77.3976,81.4374 -5.2315,7.4048 -6.6075,8.75 -8.9507,8.75 H 4292 v -517.941 c 0,-284.8675 -0.3375,-518.13557 -0.75,-518.37343 -0.4125,-0.23785 -70.1564,76.79813 -154.9864,171.19103 L 3982.0272,1338.5 3982.2636,2384 3982.5,3429.5 h 154.5 154.5 l 0.5,-69.1684 0.5,-69.1684 6.1883,7.1684 c 19.8965,23.0475 52.6533,55.5594 77.0072,76.4313 35.3511,30.2969 53.1869,42.0108 79.6969,52.3421 40.4732,15.7729 97.647,23.1195 154.6076,19.8665 z m -187,-310.4388 c -41.7684,-6.1332 -73.8773,-27.3338 -98.7181,-65.1808 -14.6682,-22.3482 -24.4096,-49.1057 -29.9811,-82.3519 -1.6493,-9.8413 -1.7795,-30.6051 -2.0758,-331 -0.2268,-229.9161 0,-323.3263 0.7927,-330.5 4.6758,-42.1668 21.1366,-76.4688 49.6411,-103.4454 21.1024,-19.9712 45.8156,-32.4091 74.8412,-37.6665 13.7212,-2.4853 46.3555,-2.5145 62.2647,-0.056 36.5715,5.6522 64.6091,21.186 80.9375,44.8421 18.4326,26.7049 31.6902,66.8329 35.2932,106.8255 0.8147,9.043 1.0303,97.6801 0.7795,320.5 l -0.3467,308 -2.131,14.5 c -6.3052,42.9039 -17.4576,75.6417 -34.6026,101.5755 -24.6832,37.3363 -62.4591,55.6282 -114.1946,55.2954 -7.7,-0.05 -17.825,-0.6517 -22.5,-1.3382 z" />
  </g>
</svg>
